<?xml version="1.0" encoding="UTF-8"?>
<svg xmlns="http://www.w3.org/2000/svg" xmlns:xlink="http://www.w3.org/1999/xlink" width="74px" height="28px" viewBox="0 0 74 28" version="1.1">
<g id="surface1">
<path style=" stroke:none;fill-rule:nonzero;fill:rgb(100%,100%,100%);fill-opacity:1;" d="M 70.300781 13.898438 C 70.300781 12.101562 68.800781 10.601562 67 10.601562 C 65.199219 10.601562 63.699219 12.101562 63.699219 13.898438 C 63.699219 14.800781 63.699219 20.601562 63.699219 20.601562 L 60 20.601562 C 60 20.601562 60 15.800781 60 13.898438 C 60 10 63.101562 6.898438 67 6.898438 C 70.898438 6.898438 74 10 74 13.898438 C 74 15.898438 74 20.601562 74 20.601562 L 70.398438 20.601562 C 70.300781 20.601562 70.300781 14.800781 70.300781 13.898438 Z M 70.300781 13.898438 "/>
<path style=" stroke:none;fill-rule:nonzero;fill:rgb(100%,100%,100%);fill-opacity:1;" d="M 44.398438 13.898438 C 44.398438 10 47.5 6.898438 51.398438 6.898438 C 55.300781 6.898438 58.398438 10 58.398438 13.898438 C 58.398438 17.800781 55.300781 20.898438 51.398438 20.898438 C 47.601562 20.898438 44.398438 17.800781 44.398438 13.898438 Z M 51.398438 17.199219 C 53.300781 17.199219 54.800781 15.699219 54.800781 13.800781 C 54.800781 11.898438 53.300781 10.398438 51.398438 10.398438 C 49.5 10.398438 48 11.898438 48 13.800781 C 48.101562 15.699219 49.601562 17.300781 51.398438 17.199219 C 51.398438 17.300781 51.398438 17.300781 51.398438 17.199219 Z M 51.398438 17.199219 "/>
<path style=" stroke:none;fill-rule:nonzero;fill:rgb(100%,100%,100%);fill-opacity:1;" d="M 35.800781 11.398438 C 35.300781 11 35.398438 10.398438 36.300781 10.199219 C 37.898438 9.898438 39.601562 10.199219 41 10.898438 L 42.800781 8.5 C 41.398438 7.5 39.699219 6.898438 38 6.898438 C 38 6.898438 34 6.398438 32.300781 9.5 C 31.5 11.199219 32.101562 13.199219 33.699219 14.199219 C 35.398438 15.300781 38.5 15.699219 39.398438 16.199219 C 40.300781 16.699219 39.898438 17.5 38.800781 17.699219 C 36.898438 17.898438 35 17.398438 33.5 16.398438 L 31.699219 18.800781 C 33.199219 19.898438 35 20.699219 36.800781 20.898438 C 36.800781 20.898438 40.601562 21.601562 42.699219 18.898438 C 43.898438 17.300781 43.699219 15 42.101562 13.800781 C 41.898438 13.601562 41.601562 13.5 41.398438 13.398438 C 39.5 12.398438 36.699219 12 35.800781 11.398438 Z M 35.800781 11.398438 "/>
<path style=" stroke:none;fill-rule:nonzero;fill:rgb(100%,100%,100%);fill-opacity:1;" d="M 18.5 23.398438 C 19.601562 24.101562 20.800781 24.601562 22 24.699219 C 26 24.800781 26.300781 20.601562 26.300781 19.601562 C 25.398438 20.398438 24.199219 20.898438 23 20.898438 C 19.199219 20.898438 16.101562 17.898438 16 14.101562 C 16 14.101562 16 14 16 14 C 16 12.101562 16 7.101562 16 7.101562 L 19.699219 7.101562 C 19.699219 7.101562 19.699219 13.101562 19.699219 14 C 19.699219 15.800781 21.199219 17.300781 23 17.300781 C 24.800781 17.300781 26.300781 15.800781 26.300781 14 C 26.300781 13.199219 26.300781 7.101562 26.300781 7.101562 L 30 7.101562 L 30 14 C 30 20.101562 30.300781 26.300781 24.398438 27.800781 C 21.699219 28.398438 18.800781 27.699219 16.601562 25.898438 Z M 18.5 23.398438 "/>
<path style=" stroke:none;fill-rule:nonzero;fill:rgb(100%,100%,100%);fill-opacity:1;" d="M 14.101562 0 L 10.398438 0 L 10.398438 6.800781 L 7 6.800781 C 3.101562 6.800781 0 9.898438 0 13.800781 C 0 17.699219 3.101562 20.800781 7 20.800781 C 10.898438 20.800781 14 17.699219 14 13.800781 C 14 11.898438 14 6.800781 14 6.800781 Z M 10.398438 13.898438 C 10.398438 15.699219 8.898438 17.199219 7 17.199219 C 5.199219 17.199219 3.699219 15.699219 3.699219 13.800781 C 3.699219 12 5.199219 10.5 7 10.5 L 10.300781 10.5 Z M 10.398438 13.898438 "/>
</g>
</svg>
